<svg width="1047" height="389" viewBox="0 0 1047 389" fill="none" xmlns="http://www.w3.org/2000/svg">
<path d="M1046.5 279L988.5 359.5L875 261.5L796.5 389L708 338L800 194.5L660.5 83L721 9L842 113L926.5 0.5L1003 56L919.5 179L1046.5 279Z" fill="white"/>
<path fill-rule="evenodd" clip-rule="evenodd" d="M692.5 379L758.5 352L642.5 0L555 20.5L399 356L496.5 380L531.5 299.5L659.5 294.5L692.5 379ZM640.5 225L548.5 228L600.5 117.5L640.5 225Z" fill="#808080"/>
<path d="M75.5 52L0 348L95 377.5L146.5 175L239.5 327.5L336.5 174L397 358.5L494 324.5L407 27L324 45.5L239 170L154 16L75.5 52Z" fill="black"/>
</svg>
